<svg xmlns="http://www.w3.org/2000/svg" width="266.667" height="266.667" preserveAspectRatio="xMidYMid meet" version="1.0" viewBox="0 0 200 200"><metadata>Created by potrace 1.14, written by Peter Selinger 2001-2017</metadata><g fill="#000" stroke="none"><path d="M0 1000 l0 -1000 1000 0 1000 0 0 1000 0 1000 -1000 0 -1000 0 0 -1000z m1240 380 l0 -50 -240 0 -240 0 0 50 0 50 240 0 240 0 0 -50z m-540 -445 l0 -305 -50 0 -50 0 0 305 0 305 50 0 50 0 0 -305z m700 0 l0 -305 -50 0 -50 0 0 305 0 305 50 0 50 0 0 -305z" transform="translate(0.000000,200.000000) scale(0.100000,-0.100000)"/></g></svg>