<svg xmlns="http://www.w3.org/2000/svg" width="1200" height="1200" preserveAspectRatio="xMidYMid meet" version="1.0" viewBox="0 0 900 900"><metadata>Created by potrace 1.14, written by Peter Selinger 2001-2017</metadata><g fill="#000" stroke="none"><path d="M0 4500 l0 -4500 4500 0 4500 0 0 4500 0 4500 -4500 0 -4500 0 0 -4500z m5510 1825 c17 -20 17 -360 0 -380 -11 -13 -132 -15 -909 -15 -684 0 -900 -3 -909 -12 -18 -18 -17 -1591 1 -1606 9 -8 277 -12 904 -12 692 -1 895 -4 908 -14 15 -11 17 -35 17 -195 0 -101 -4 -187 -9 -192 -5 -5 -395 -9 -903 -9 -813 0 -895 -2 -912 -17 -17 -15 -18 -53 -18 -709 0 -650 -1 -694 -17 -702 -30 -15 -357 -9 -376 7 -16 12 -17 159 -17 1923 0 1297 3 1916 10 1929 10 19 33 19 1114 19 960 0 1105 -2 1116 -15z m613 -613 c15 -16 17 -75 16 -600 0 -509 -2 -583 -15 -597 -22 -21 -365 -23 -383 -1 -9 10 -12 172 -12 602 0 546 2 590 18 601 12 9 66 13 188 13 153 0 174 -2 188 -18z" transform="translate(0.000000,900.000000) scale(0.100000,-0.100000)"/></g></svg>